<?xml version="1.0" standalone="no"?>
<!DOCTYPE svg PUBLIC "-//W3C//DTD SVG 20010904//EN"
 "http://www.w3.org/TR/2001/REC-SVG-20010904/DTD/svg10.dtd">
<svg version="1.0" xmlns="http://www.w3.org/2000/svg"
 width="512.000000pt" height="512.000000pt" viewBox="0 0 512.000000 512.000000"
 preserveAspectRatio="xMidYMid meet">
<metadata>
Created by potrace 1.11, written by Peter Selinger 2001-2013
</metadata>
<g transform="translate(0.000000,512.000000) scale(0.100000,-0.100000)"
fill="#000000" stroke="none">
<path d="M1329 4976 c-126 -41 -160 -80 -182 -209 -21 -119 -47 -169 -131
-249 -142 -135 -323 -314 -347 -343 -14 -17 -43 -58 -66 -90 -139 -207 -204
-384 -232 -630 -8 -77 -7 -399 2 -440 3 -11 8 -51 12 -88 3 -37 8 -78 11 -90
2 -12 7 -42 10 -67 5 -36 58 -305 79 -405 10 -44 16 -71 20 -92 2 -12 33 -140
69 -285 80 -322 84 -347 81 -456 -4 -114 -30 -193 -139 -406 -48 -93 -85 -171
-82 -173 3 -3 0 -17 -5 -31 -34 -89 -5 -314 55 -431 20 -38 113 -132 162 -163
140 -89 334 -155 539 -183 23 -3 51 -7 64 -10 117 -22 527 -23 696 0 17 2 53
7 80 10 574 67 1214 300 1726 626 190 121 406 290 544 426 383 377 541 723
441 967 -81 197 -172 288 -372 371 -199 83 -288 132 -351 193 -78 75 -113 128
-185 280 -135 286 -341 695 -414 822 -366 638 -677 886 -1209 965 -22 3 -125
8 -230 11 -255 8 -319 26 -418 119 -76 70 -130 83 -228 51z m2636 -2789 c17
-4 46 -9 65 -12 112 -17 249 -69 296 -111 34 -31 54 -67 54 -95 0 -36 -58
-145 -127 -237 -74 -100 -312 -338 -433 -434 -304 -240 -657 -436 -1032 -571
-117 -43 -383 -120 -453 -133 -16 -3 -48 -9 -70 -14 -45 -10 -160 -29 -220
-36 -22 -3 -49 -7 -60 -9 -85 -17 -444 -24 -600 -11 -115 9 -303 42 -380 66
-142 44 -175 69 -175 130 0 129 156 347 389 541 81 68 350 259 364 259 3 0 36
19 73 42 291 177 865 408 1274 513 112 29 317 73 369 80 20 3 46 7 59 10 13 2
53 7 90 11 37 4 94 10 127 13 74 8 349 6 390 -2z"/>
<path d="M2519 1716 c-250 -92 -549 -226 -714 -319 -125 -70 -167 -95 -230
-136 -74 -48 -196 -135 -230 -163 -11 -9 -31 -26 -45 -37 -25 -20 -25 -20 -5
-36 69 -54 195 -107 293 -122 75 -11 251 -8 327 6 324 60 623 264 743 506 41
82 54 135 53 219 0 82 -12 130 -32 133 -8 2 -80 -22 -160 -51z"/>
</g>
</svg>
